<svg class="" xmlns="http://www.w3.org/2000/svg" width="113.55" height="119.607" viewBox="0 0 113.55 119.607"><path id="emergency-exit" d="M125.553,11.445,100.263.14a1.635,1.635,0,0,0-2.3,1.493V9.414H61.533A1.635,1.635,0,0,0,59.9,11.05v9.937A10.472,10.472,0,0,0,58.326,39.87a10.6,10.6,0,0,0,1.571.737v2.43a9.062,9.062,0,0,0-3.136-2.005,29.443,29.443,0,0,0-4.158-.706c-1.738-.2-3.516-.346-5.2-.477-1.191-.088-2.4-.162-3.566-.234-1.9-.117-3.865-.238-5.784-.417l-.088-.012A5.165,5.165,0,0,0,33.91,40.4L23.826,49.092a5.188,5.188,0,0,0,6.77,7.863L39.014,49.7l7.731.737-4.9,18.281L33.266,82.944,16.922,86.992a5.2,5.2,0,1,0,2.49,10.09l18.437-4.563a5.168,5.168,0,0,0,3.211-2.384l6.464-10.7c1.9.654,3.793,1.509,5.626,2.336l.458.206q.986.446,1.966.9c.864.4,1.752.808,2.646,1.206l-2.227,20.368a5.179,5.179,0,0,0,5.149,5.747c.091,0,.18-.008.269-.013a1.657,1.657,0,0,0,.194.012H97.96v7.773a1.635,1.635,0,0,0,2.3,1.493l25.29-11.3a1.635,1.635,0,0,0,.969-1.493V12.937a1.635,1.635,0,0,0-.969-1.493ZM56.6,32.664a7.2,7.2,0,1,1,3.357,4.372A7.2,7.2,0,0,1,56.6,32.664ZM38.255,88.451a1.925,1.925,0,0,1-1.193.893L18.631,93.9a1.925,1.925,0,1,1-.926-3.737L34.71,85.956a1.635,1.635,0,0,0,1.007-.743l6.1-10.117a7.658,7.658,0,0,0,2.736,2.92Zm21.407,17.758a1.9,1.9,0,0,1-.418-1.406L61.6,83.241a1.635,1.635,0,0,0-.972-1.677l-.514-.225c-1.06-.463-2.133-.958-3.171-1.438-.662-.305-1.324-.611-1.991-.913l-.458-.207c-1.911-.862-3.888-1.752-5.939-2.458-.363-.125-.692-.257-1-.39-.027-.014-.055-.025-.083-.037-3.711-1.68-3.1-4-2.88-4.8l5.807-21.681a1.635,1.635,0,0,0-1.425-2.052l-10.35-.987c-.052-.005-.1-.008-.155-.008a1.635,1.635,0,0,0-1.068.4l-8.949,7.709a1.917,1.917,0,1,1-2.5-2.908l10.092-8.7a1.924,1.924,0,0,1,1.472-.446q.07.013.141.02c2,.189,4.021.313,5.976.434,1.158.071,2.355.145,3.521.231,1.708.133,3.381.268,5.063.464a26.312,26.312,0,0,1,3.684.615A8.484,8.484,0,0,1,58.3,45.993c.709.635,1.4,1.292,2.067,1.95l.023.022c.7.688,1.373,1.378,2.021,2.048,1.395,1.434,2.788,2.928,4.13,4.367l.6.651c.594.645,1.208,1.313,1.824,1.959l.239.252a1.63,1.63,0,0,0,1.25.509l14-.537a1.916,1.916,0,0,1,1.487,3.218,1.881,1.881,0,0,1-1.318.611l-15.6.589a1.907,1.907,0,0,1-1-.234l-.021-.012-.26-.139L60.1,53.412a1.635,1.635,0,0,0-2.75.719L52.457,72.4a1.635,1.635,0,0,0,.939,1.928l11.038,4.7c.043.019.088.035.133.05A1.918,1.918,0,0,1,65.7,81.033l-2.649,24.176a1.951,1.951,0,0,1-2.115,1.7,1.885,1.885,0,0,1-1.274-.7ZM55.985,71.872l3.783-14.117.131.134V73.537ZM97.96,106.923h-32a5.17,5.17,0,0,0,.341-1.358l2.649-24.178A5.2,5.2,0,0,0,65.684,76c-.023-.01-.049-.018-.074-.027l-2.442-1.04V61.24l2.418,2.478a1.625,1.625,0,0,0,.4.3l.474.253a5.149,5.149,0,0,0,2.7.634l15.594-.589a5.188,5.188,0,0,0-.416-10.368l-13.266.508c-.511-.541-1.023-1.1-1.52-1.638l-.61-.662c-1.359-1.457-2.764-2.963-4.179-4.418-.512-.53-1.047-1.075-1.593-1.621V41.263c.125,0,.249.012.374.012a10.475,10.475,0,1,0-.373-20.943V12.686H97.96Zm25.289-1.312-22.018,9.835V4.156L123.249,14ZM18.993,22.8h19.82V27.03a1.635,1.635,0,0,0,2.751,1.2l9.84-9.178a1.635,1.635,0,0,0,0-2.392l-9.84-9.178a1.635,1.635,0,0,0-2.751,1.2V12.9H18.993a1.635,1.635,0,0,0-1.635,1.635v6.63A1.635,1.635,0,0,0,18.993,22.8Zm1.635-6.629h19.82a1.635,1.635,0,0,0,1.635-1.635v-2.1l5.807,5.416-5.807,5.416v-2.1a1.635,1.635,0,0,0-1.635-1.635H20.628Z" transform="translate(-12.971 0.002)" fill="#fff"></path></svg>