<svg class="" xmlns="http://www.w3.org/2000/svg" width="131.533" height="99.005" viewBox="0 0 131.533 99.005"><path id="Path_12652" data-name="Path 12652" d="M126.146,75.851h-6.17V70.724a7.38,7.38,0,0,0-7.371-7.372h-5.88a7.38,7.38,0,0,0-7.371,7.372V91.83H89.5V86.163A7.451,7.451,0,0,0,77.707,80.1a7.455,7.455,0,0,0-13.254-.4,7.439,7.439,0,0,0-10.76,1.8,7.452,7.452,0,0,0-12.306,5.66V91.83h-9.2V86.395a1.925,1.925,0,1,0-3.851,0v44.73a3.524,3.524,0,0,1-3.521,3.521H18.93a3.524,3.524,0,0,1-3.521-3.521v-60.4A3.525,3.525,0,0,1,18.93,67.2h5.88a3.525,3.525,0,0,1,3.521,3.521v7.465a1.925,1.925,0,1,0,3.851,0V70.724a7.38,7.38,0,0,0-7.371-7.372H18.93a7.38,7.38,0,0,0-7.371,7.372v5.127H5.388A5.394,5.394,0,0,0,0,81.239V120.61A5.394,5.394,0,0,0,5.388,126h6.17v5.127A7.38,7.38,0,0,0,18.93,138.5h5.88a7.38,7.38,0,0,0,7.371-7.371V110.019h6.6v3.516a7.837,7.837,0,0,0,1.78,4.966l5.98,7.27v34.66a1.925,1.925,0,1,0,3.851,0v-35.35a1.926,1.926,0,0,0-.438-1.223l-6.418-7.8a3.976,3.976,0,0,1-.9-2.52v-3.516l36.414.223a1.925,1.925,0,1,0,0-3.851H70.284a3.278,3.278,0,1,1,0-6.556H86.839A2.065,2.065,0,0,1,88.9,101.9v11.637a3.975,3.975,0,0,1-.9,2.52l-6.418,7.8a1.926,1.926,0,0,0-.438,1.223v5.078a1.925,1.925,0,0,0,3.851,0v-4.388l5.98-7.27a7.839,7.839,0,0,0,1.78-4.966v-3.516h6.6v21.106a7.38,7.38,0,0,0,7.371,7.371h5.88a7.38,7.38,0,0,0,7.371-7.371V126h6.17a5.394,5.394,0,0,0,5.388-5.388V81.239A5.393,5.393,0,0,0,126.146,75.851ZM5.388,122.147a1.539,1.539,0,0,1-1.537-1.537V81.239A1.539,1.539,0,0,1,5.388,79.7h6.17v42.445ZM82.04,82.556a3.611,3.611,0,0,1,3.607,3.607v7.169a3.6,3.6,0,0,1-1.169,2.652H79.6a3.6,3.6,0,0,1-1.169-2.652V86.163A3.611,3.611,0,0,1,82.04,82.556Zm-14.672.752a3.607,3.607,0,0,1,7.214,0V93.332a3.6,3.6,0,0,1-1.169,2.652H70.284a7.118,7.118,0,0,0-1.548.171,3.588,3.588,0,0,1-1.369-2.824V83.309ZM56.3,85.6a3.607,3.607,0,0,1,7.214,0v7.729a3.607,3.607,0,1,1-7.214,0Zm-11.065,1.55a3.607,3.607,0,0,1,7.214,0v6.179a3.607,3.607,0,1,1-7.214,0ZM32.182,95.681h9.586a7.452,7.452,0,0,0,12.611,2.646,7.429,7.429,0,0,0,9.8,1.11,7.115,7.115,0,0,0-.335,6.731H32.182Zm60.572,10.487V101.9a5.924,5.924,0,0,0-3.891-5.557q.142-.323.254-.66H99.352v10.487Zm34.929,14.442a1.539,1.539,0,0,1-1.537,1.537h-6.17v-5.564a1.925,1.925,0,0,0-3.851,0v14.542a3.524,3.524,0,0,1-3.521,3.521h-5.88a3.524,3.524,0,0,1-3.521-3.521v-60.4a3.525,3.525,0,0,1,3.521-3.521h5.88a3.525,3.525,0,0,1,3.521,3.521v37.653a1.925,1.925,0,0,0,3.851,0V79.7h6.17a1.539,1.539,0,0,1,1.537,1.537Z" transform="translate(0 -63.352)" fill="#fff"></path><path id="Path_12653" data-name="Path 12653" d="M317.989,348.04a1.925,1.925,0,0,0-1.925,1.926v22.066a1.925,1.925,0,1,0,3.851,0V349.965A1.925,1.925,0,0,0,317.989,348.04Z" transform="translate(-234.921 -274.952)" fill="#fff"></path></svg>