<svg class="" xmlns="http://www.w3.org/2000/svg" width="112.131" height="112.131" viewBox="0 0 112.131 112.131"><path id="football" d="M56.066,0a56.065,56.065,0,1,0,56.066,56.065A56.066,56.066,0,0,0,56.066,0ZM99.484,26.893,95.6,43.41,75.128,50.233,57.934,36.48V16.216L77.557,8.367A52.645,52.645,0,0,1,99.484,26.893Zm.312,57.85L81.263,87.67,71.171,74.339l5.141-20.557,20.243-6.746,11.6,13.915A51.987,51.987,0,0,1,99.8,84.744ZM30.95,87.683,12.335,84.743a51.994,51.994,0,0,1-8.354-23.8L15.568,47.03l20.243,6.746,5.141,20.568ZM3.754,55.368A51.989,51.989,0,0,1,9.886,31.487l3.031,12.895ZM44.443,72.885,39.485,53.034,56.065,39.771,72.65,53.04,67.688,72.885ZM99.213,44.374l3.031-12.895a51.987,51.987,0,0,1,6.132,23.882ZM72.461,6.382l-16.4,6.557L39.582,6.412a52.136,52.136,0,0,1,32.878-.03ZM34.484,8.41,54.2,16.222V36.48L37,50.233,16.532,43.41,12.647,26.893A52.656,52.656,0,0,1,34.484,8.41ZM15.457,89.02l15.192,2.4,9.187,14.391A52.5,52.5,0,0,1,15.457,89.02Zm29.737,18.23L34.043,89.791l9.875-13.168h24.3L78.23,89.854l-9.717,17.03a52.166,52.166,0,0,1-23.316.374ZM73.7,105.326l7.965-13.94,15.012-2.368A52.53,52.53,0,0,1,73.7,105.326Zm0,0" fill="#fff"></path></svg>