<svg class="" xmlns="http://www.w3.org/2000/svg" width="149.552" height="98.225" viewBox="0 0 149.552 98.225"><g id="Group_3991" data-name="Group 3991" transform="translate(0 0)"><g id="Group_3990" data-name="Group 3990"><path id="Path_12592" data-name="Path 12592" d="M149.472,123.04a139.6,139.6,0,0,0-4.1-27.01c-2.235-8.569-5.029-16.578-8.382-22.725-13.039-22.912-27.2-19.372-44.147-14.9a121.335,121.335,0,0,1-17.137,3.353H73.845A121.335,121.335,0,0,1,56.708,58.4C39.757,54.118,25.6,50.393,12.561,73.491A94.961,94.961,0,0,0,4.179,96.216a139.6,139.6,0,0,0-4.1,27.01c-.373,9.5.559,16.392,2.608,21.235q3.074,6.706,8.941,8.382a18.212,18.212,0,0,0,11.922-1.3c7.265-2.98,15.647-9.314,23.843-16.951,5.774-5.588,16.578-8.382,27.382-8.382s21.608,2.794,27.382,8.382c8.2,7.637,16.578,13.971,23.843,16.951,4.284,1.676,8.382,2.235,11.922,1.3,3.725-1.118,6.892-3.725,8.941-8.569C148.913,139.618,149.845,132.726,149.472,123.04Zm-8.941,18.627c-1.118,2.608-2.608,4.1-4.471,4.657-2.049.559-4.657.186-7.637-.931-6.52-2.608-14.157-8.382-21.608-15.461-7.078-7.078-19.559-10.618-32.039-10.618s-24.961,3.539-32.225,10.245c-7.637,7.078-15.274,13.039-21.608,15.461-2.98,1.118-5.588,1.676-7.637.931-1.863-.559-3.353-2.049-4.471-4.657-1.49-3.539-2.235-9.314-1.863-17.882a128.488,128.488,0,0,1,3.912-25.706c2.049-8.01,4.657-15.461,7.823-21.049C28.953,58.216,40.875,61.2,55.032,64.922a109.27,109.27,0,0,0,18.255,3.539H76.08a107.918,107.918,0,0,0,18.441-3.539c14.157-3.539,26.078-6.706,36.323,11.735,3.167,5.588,5.774,12.853,7.824,21.049a140.989,140.989,0,0,1,3.912,25.706C142.953,131.981,142.208,137.755,140.531,141.667Z" transform="translate(0 -55.109)" fill="#fff"></path></g></g><g id="Group_3993" data-name="Group 3993" transform="translate(19.267 18.568)"><g id="Group_3992" data-name="Group 3992"><path id="Path_12593" data-name="Path 12593" d="M79.745,108.02a11.318,11.318,0,0,0-6.706-3.167,10.6,10.6,0,0,0-2.98-6.52l-.186-.186a10.55,10.55,0,0,0-7.637-3.167A11,11,0,0,0,54.6,98.148a10.827,10.827,0,0,0-3.167,6.706,11.1,11.1,0,0,0-6.706,2.98l-.186.186a10.55,10.55,0,0,0-3.167,7.637,11,11,0,0,0,3.167,7.637,10.385,10.385,0,0,0,6.892,3.167,9.937,9.937,0,0,0,3.167,6.706,10.55,10.55,0,0,0,7.637,3.167,11,11,0,0,0,7.637-3.167,11.318,11.318,0,0,0,3.167-6.706,9.937,9.937,0,0,0,6.706-3.167,10.55,10.55,0,0,0,3.167-7.637A11,11,0,0,0,79.745,108.02Zm-4.657,10.431a3.791,3.791,0,0,1-2.794,1.118H69.687a3.537,3.537,0,0,0-3.539,3.539v2.422a3.912,3.912,0,1,1-7.824,0v-2.608a3.537,3.537,0,0,0-3.539-3.539H52.177a3.82,3.82,0,0,1-2.794-6.52l.186-.186a4.451,4.451,0,0,1,2.608-.931h2.608a3.537,3.537,0,0,0,3.539-3.539V105.6A3.952,3.952,0,0,1,65.03,102.8l.186.186a4.451,4.451,0,0,1,.931,2.608v2.608a3.537,3.537,0,0,0,3.539,3.539h2.608a3.952,3.952,0,0,1,2.794,6.706Z" transform="translate(-41.373 -94.981)" fill="#fff"></path></g></g><g id="Group_3995" data-name="Group 3995" transform="translate(100.668 19.499)"><g id="Group_3994" data-name="Group 3994"><ellipse id="Ellipse_1317" data-name="Ellipse 1317" cx="6.52" cy="6.52" rx="6.52" ry="6.52" fill="#fff"></ellipse></g></g><g id="Group_3997" data-name="Group 3997" transform="translate(100.668 45.95)"><g id="Group_3996" data-name="Group 3996"><ellipse id="Ellipse_1318" data-name="Ellipse 1318" cx="6.52" cy="6.52" rx="6.52" ry="6.52" fill="#fff"></ellipse></g></g><g id="Group_3999" data-name="Group 3999" transform="translate(87.443 32.724)"><g id="Group_3998" data-name="Group 3998"><ellipse id="Ellipse_1319" data-name="Ellipse 1319" cx="6.52" cy="6.52" rx="6.52" ry="6.52" fill="#fff"></ellipse></g></g><g id="Group_4001" data-name="Group 4001" transform="translate(113.894 32.724)"><g id="Group_4000" data-name="Group 4000"><ellipse id="Ellipse_1320" data-name="Ellipse 1320" cx="6.52" cy="6.52" rx="6.52" ry="6.52" fill="#fff"></ellipse></g></g></svg>