<svg class="" xmlns="http://www.w3.org/2000/svg" width="119.045" height="119.607" viewBox="0 0 119.045 119.607"><path id="Path_12654" data-name="Path 12654" d="M88.794,80.787h.656a1.594,1.594,0,0,0,0-3.187h-.656a1.594,1.594,0,1,0,0,3.187Z" transform="translate(-5.93 -5.048)" fill="#fff"></path><path id="Path_12655" data-name="Path 12655" d="M96.194,84.587h.656a1.58,1.58,0,0,0,1.594-1.594A1.643,1.643,0,0,0,96.85,81.4h-.656A1.58,1.58,0,0,0,94.6,82.994,1.643,1.643,0,0,0,96.194,84.587Z" transform="translate(-6.394 -5.286)" fill="#fff"></path><path id="Path_12656" data-name="Path 12656" d="M90.493,85.6A1.58,1.58,0,0,0,88.9,87.194a1.643,1.643,0,0,0,1.594,1.594h.656a1.58,1.58,0,0,0,1.594-1.594A1.643,1.643,0,0,0,91.15,85.6Z" transform="translate(-6.037 -5.549)" fill="#fff"></path><path id="Path_12657" data-name="Path 12657" d="M99.579,86.156A15.539,15.539,0,0,0,69.4,78.751a89.449,89.449,0,0,0-21.747-3V57.285l42.931-19.5a1.613,1.613,0,0,0,.844-2.156,1.839,1.839,0,0,0-.844-.844l-42.931-19.5V10.886h.562a5.4,5.4,0,0,0,5.343-5.343A5.4,5.4,0,0,0,48.212.2H34.62a5.4,5.4,0,0,0-5.343,5.343,5.4,5.4,0,0,0,5.343,5.343h.562V76.408C14.654,78.751.5,87.469.5,97.78c0,12.373,20.06,22.028,45.743,22.028,15.841,0,30.652-3.937,38.9-10.311a57.336,57.336,0,0,0,6.937.375c15.654,0,27.465-5.249,27.465-12.092,0-5.624-7.968-10.217-19.966-11.623Zm-51.93-67.3L85.988,36.289,47.649,53.723ZM84.488,70.221A12.279,12.279,0,1,1,72.208,82.5,12.261,12.261,0,0,1,84.488,70.221ZM24.122,97.78c0-1.968,4.218-4.593,11.061-5.624V103.4C28.246,102.373,24.122,99.748,24.122,97.78Zm23.528-5.624c6.843,1.031,11.061,3.562,11.061,5.624s-4.218,4.593-11.061,5.624ZM32.558,5.543A2.081,2.081,0,0,1,34.62,3.481H48.212a2.062,2.062,0,1,1,0,4.124H34.62A2.081,2.081,0,0,1,32.558,5.543Zm11.9,5.343v92.893c-1.968.094-4.031.094-6,0V10.886Zm47.618,95.7a62.193,62.193,0,0,1-7.218-.469,1.476,1.476,0,0,0-1.219.375c-7.5,6.187-21.841,10.03-37.4,10.03-23.059,0-42.463-8.624-42.463-18.841C3.781,89.25,16.9,81.751,35.089,79.5v9.28c-8.717,1.219-14.342,4.593-14.342,8.9,0,4.5,6.093,8.061,15.654,9.092h.094a40.775,40.775,0,0,0,9.561,0h.094c9.561-1.031,15.654-4.593,15.654-9.092,0-4.312-5.53-7.686-14.342-8.9V78.939a80.3,80.3,0,0,1,21.184,3v.656A15.557,15.557,0,0,0,98.267,89.25c11.155,1.219,17.81,5.156,17.81,8.53.187,4.218-9.749,8.811-24,8.811Z" transform="translate(-0.5 -0.2)" fill="#fff"></path></svg>