<svg class="" xmlns="http://www.w3.org/2000/svg" width="119.606" height="110.611" viewBox="0 0 119.606 110.611"><g id="Group_4047" data-name="Group 4047" transform="translate(0 0)"><g id="Group_4046" data-name="Group 4046"><g id="Group_4045" data-name="Group 4045"><path id="Path_12658" data-name="Path 12658" d="M163.748,76.255c6.731-.332,10.873-4.671,10.873-11.492a13.189,13.189,0,0,0-.089-1.527c4.514-2.884,6.456-6.744,6.456-12.728s-1.942-9.843-6.456-12.728a13.192,13.192,0,0,0,.089-1.527c0-6.82-4.142-11.159-10.873-11.492a10.641,10.641,0,0,0-9.408-5.508,7.768,7.768,0,0,0-5.793,2.131q-.234.231-.449.485-.215-.254-.449-.485a7.772,7.772,0,0,0-5.793-2.131,10.642,10.642,0,0,0-9.408,5.508c-6.731.332-10.873,4.671-10.873,11.492a13.244,13.244,0,0,0,.089,1.527c-4.514,2.884-6.456,6.744-6.456,12.728s1.942,9.843,6.456,12.728a13.192,13.192,0,0,0-.089,1.527c0,6.82,4.142,11.159,10.873,11.492a10.641,10.641,0,0,0,9.408,5.508h.157a7.714,7.714,0,0,0,5.636-2.132q.234-.231.449-.485.215.254.449.485a7.713,7.713,0,0,0,5.636,2.132h.157a10.642,10.642,0,0,0,9.408-5.508ZM145.763,70.98c0,2.585-.482,4.426-1.393,5.325a3.254,3.254,0,0,1-2.447.786,6.007,6.007,0,0,1-5.457-3.245,3.74,3.74,0,0,1,1.433-1.478,3.7,3.7,0,0,1,2.831-.374,2.336,2.336,0,0,0,1.212-4.512,8.421,8.421,0,0,0-9.559,4.09c-4.071-.289-6.133-2.576-6.133-6.809a8.515,8.515,0,0,1,.153-1.6,3.291,3.291,0,0,0-1.585-3.474c-3.644-2.1-4.935-4.5-4.935-9.176s1.291-7.079,4.934-9.176a3.292,3.292,0,0,0,1.586-3.477,8.491,8.491,0,0,1-.153-1.6c0-4.539,2.37-6.84,7.046-6.84h.028c.068,0,.136,0,.2-.006a2.662,2.662,0,0,1,1.525,3.135,2.336,2.336,0,1,0,4.515,1.2,7.351,7.351,0,0,0-2.463-7.583,6.182,6.182,0,0,1,4.82-2.234,3.253,3.253,0,0,1,2.447.786c.911.9,1.393,2.74,1.393,5.325Zm15.384-2.5a2.336,2.336,0,1,0-4.515-1.2,7.35,7.35,0,0,0,2.463,7.583,6.182,6.182,0,0,1-4.82,2.234,3.24,3.24,0,0,1-2.447-.786c-.911-.9-1.393-2.74-1.393-5.325V30.036c0-2.585.482-4.426,1.393-5.325a3.251,3.251,0,0,1,2.447-.786,6.007,6.007,0,0,1,5.457,3.245,3.74,3.74,0,0,1-1.433,1.478,3.7,3.7,0,0,1-2.831.374,2.336,2.336,0,0,0-1.212,4.512,8.439,8.439,0,0,0,2.191.291,8.441,8.441,0,0,0,7.368-4.381c4.071.289,6.133,2.576,6.133,6.809a8.515,8.515,0,0,1-.153,1.6,3.291,3.291,0,0,0,1.585,3.474c3.644,2.1,4.935,4.5,4.935,9.176s-1.291,7.079-4.934,9.176A3.293,3.293,0,0,0,169.8,63.16a8.493,8.493,0,0,1,.153,1.6c0,4.539-2.37,6.84-7.046,6.84h-.018c-.072,0-.143,0-.214.006A2.661,2.661,0,0,1,161.147,68.475Z" transform="translate(-88.295 -19.252)" fill="#fff"></path><path id="Path_12659" data-name="Path 12659" d="M176.8,132.583a6.825,6.825,0,0,0-5.014,11.462q.135.145.276.286a2.336,2.336,0,0,0,3.3-3.306c-.055-.054-.108-.11-.16-.165a2.092,2.092,0,0,1-.388-2.3,2.132,2.132,0,0,1,1.985-1.306,2.336,2.336,0,1,0,0-4.672Z" transform="translate(-130.252 -106.108)" fill="#fff"></path><path id="Path_12660" data-name="Path 12660" d="M306.495,141.025a2.336,2.336,0,0,0,3.3,3.306q.141-.141.277-.286a6.825,6.825,0,0,0-5.015-11.462,2.336,2.336,0,0,0,0,4.672,2.132,2.132,0,0,1,1.985,1.306,2.091,2.091,0,0,1-.388,2.3q-.078.084-.16.166Z" transform="translate(-232.004 -106.109)" fill="#fff"></path><path id="Path_12661" data-name="Path 12661" d="M38.934,126.953,22.648,110.906V93.629a7.087,7.087,0,0,0-7.079-7.079l-.245,0a7.037,7.037,0,0,0-1.185.142V84.969A7.138,7.138,0,0,0,7.4,77.764a7.539,7.539,0,0,0-5.472,2.007A5.821,5.821,0,0,0,.056,84c0,5.51-.034,31.179-.056,39.214,0,.19,0,.378,0,.566a21.412,21.412,0,0,0,6.961,15.25q.055.051.114.1L25.3,153.817v18.547a2.336,2.336,0,0,0,2.336,2.336H44.053a2.336,2.336,0,0,0,2.336-2.336v-27.6A25.158,25.158,0,0,0,38.934,126.953ZM15.471,91.224l.1,0a2.41,2.41,0,0,1,2.407,2.407v14.613a7.517,7.517,0,0,0-3.837.372V91.692A2.379,2.379,0,0,1,15.471,91.224Zm26.245,78.8H29.968V152.7a2.336,2.336,0,0,0-.869-1.818L10.074,135.537a16.715,16.715,0,0,1-5.4-11.849q0-.231,0-.465c.022-8.038.056-33.715.056-39.227a1.178,1.178,0,0,1,.424-.844,2.872,2.872,0,0,1,2.028-.721,2.5,2.5,0,0,1,2.287,2.538v28.714a7.584,7.584,0,0,0,1.884,7.333l16.454,17.213A2.336,2.336,0,0,0,31.183,135L14.718,117.777l-.024-.025a2.894,2.894,0,0,1-.027-4.034l.306-.277a2.879,2.879,0,0,1,3.844.249l.025.025,16.813,16.567a20.458,20.458,0,0,1,6.062,14.483v25.265Z" transform="translate(0 -64.089)" fill="#fff"></path><path id="Path_12662" data-name="Path 12662" d="M359.755,84a5.823,5.823,0,0,0-1.872-4.225,7.544,7.544,0,0,0-5.472-2.007,7.138,7.138,0,0,0-6.74,7.205V86.7a7.007,7.007,0,0,0-1.181-.142l-.248,0a7.087,7.087,0,0,0-7.079,7.079v17.277l-16.285,16.047a25.159,25.159,0,0,0-7.455,17.811v27.6a2.336,2.336,0,0,0,2.336,2.336h16.421a2.336,2.336,0,0,0,2.336-2.336V153.817l18.216-14.693q.059-.047.114-.1a21.411,21.411,0,0,0,6.961-15.251q.005-.281,0-.566C359.789,115.175,359.755,89.506,359.755,84Zm-15.529,7.226.114,0a2.375,2.375,0,0,1,1.331.468v16.921a7.518,7.518,0,0,0-3.837-.371V93.629A2.407,2.407,0,0,1,344.226,91.222Zm10.909,32.465a16.716,16.716,0,0,1-5.4,11.85l-19.025,15.345a2.336,2.336,0,0,0-.869,1.818v17.328H318.094V144.764a20.458,20.458,0,0,1,6.062-14.483l16.813-16.567.025-.025a2.878,2.878,0,0,1,3.844-.25l.308.279a2.894,2.894,0,0,1-.028,4.033l-.019.02-8.3,8.631a2.336,2.336,0,1,0,3.368,3.238l8.291-8.622a7.583,7.583,0,0,0,1.886-7.335V84.969a2.5,2.5,0,0,1,2.287-2.538,2.871,2.871,0,0,1,2.028.721,1.178,1.178,0,0,1,.424.844c0,5.512.034,31.189.056,39.226C355.139,123.379,355.138,123.534,355.135,123.687Z" transform="translate(-240.205 -64.089)" fill="#fff"></path><path id="Path_12663" data-name="Path 12663" d="M383.8,317.148a2.335,2.335,0,1,0-.828,2.814A2.353,2.353,0,0,0,383.8,317.148Z" transform="translate(-290.705 -246.452)" fill="#fff"></path></g></g></g></svg>