<svg class="" xmlns="http://www.w3.org/2000/svg" width="88.771" height="119.606" viewBox="0 0 88.771 119.606"><path id="Path_12664" data-name="Path 12664" d="M152.434,9.344H138.418V7.008a2.336,2.336,0,0,0-2.336-2.336H122.065V2.336A2.336,2.336,0,0,0,119.729,0H103.377a2.336,2.336,0,0,0-2.336,2.336V9.344H87.024a2.336,2.336,0,0,0-2.336,2.336V30.369l-2.8-3.738a2.337,2.337,0,0,0-2.736-.767l-11.68,4.672A2.337,2.337,0,0,0,66.007,32.9l1.97,23.645A41.569,41.569,0,0,0,79.5,81.934,18.731,18.731,0,0,0,89.626,87.3a9.325,9.325,0,0,0-1.193,2.858,2.333,2.333,0,0,0,1.749,2.8,2.339,2.339,0,0,0,2.8-1.747A4.7,4.7,0,0,1,97.525,87.6h12.451a13.666,13.666,0,1,1,0,27.332H97.527a4.683,4.683,0,0,1-4.567-3.719,2.34,2.34,0,0,0-2.285-1.864,2.459,2.459,0,0,0-1.953,1.051,2.319,2.319,0,0,0-.336,1.757,9.342,9.342,0,0,0,9.15,7.448H137.25a9.347,9.347,0,0,0,9.344-9.344V92.274a9.264,9.264,0,0,0-2.155-5.967,18.732,18.732,0,0,0,10.331-16.74V11.68a2.336,2.336,0,0,0-2.336-2.336ZM89.36,14.016h11.68v7.008a2.336,2.336,0,1,0,4.672,0V4.672h11.68v11.68a2.336,2.336,0,1,0,4.672,0V9.344h11.68v11.68a2.336,2.336,0,0,0,4.672,0V14.016H150.1V42.633a11.694,11.694,0,0,1-11.68,11.68H101.04a11.694,11.694,0,0,1-11.68-11.68ZM72.634,56.156,70.807,34.232l8.414-3.366,5.466,7.289v4.478a16.358,16.358,0,0,0,7.94,14.016,16.358,16.358,0,0,0-7.94,14.016v9.6a13.731,13.731,0,0,1-1.828-1.576A36.882,36.882,0,0,1,72.634,56.156ZM122.187,87.6h15.062a4.689,4.689,0,0,1,4.672,4.672V94.26h-15A18.417,18.417,0,0,0,122.187,87.6Zm19.734,16H128.166a.364.364,0,0,0,0-.064,17.761,17.761,0,0,0,0-4.546.405.405,0,0,0,0-.063h13.755Zm-4.672,11.33H122.187a18.417,18.417,0,0,0,4.732-6.658h15v1.986A4.689,4.689,0,0,1,137.249,114.934Zm3.148-32H92.912a13.989,13.989,0,0,1-3.552-.462v-11.8a11.694,11.694,0,0,1,11.68-11.68h37.377c6.768,0,11.68,4.45,11.68,10.582A13.963,13.963,0,0,1,140.4,82.93Zm9.7-24.243a15.525,15.525,0,0,0-3.015-2.2,16.462,16.462,0,0,0,3.015-2.43Z" transform="translate(-65.999)" fill="#fff"></path><ellipse id="Ellipse_1323" data-name="Ellipse 1323" cx="2.336" cy="2.336" rx="2.336" ry="2.336" transform="translate(22.193 98.848)" fill="#fff"></ellipse><path id="Path_12665" data-name="Path 12665" d="M249.336,124.672h3.738a2.336,2.336,0,1,0,0-4.672h-3.738a2.336,2.336,0,0,0,0,4.672Z" transform="translate(-204.717 -91.967)" fill="#fff"></path><path id="Path_12666" data-name="Path 12666" d="M310.336,124.672h3.971a2.336,2.336,0,0,0,0-4.672h-3.971a2.336,2.336,0,0,0,0,4.672Z" transform="translate(-251.467 -91.967)" fill="#fff"></path><path id="Path_12667" data-name="Path 12667" d="M188.336,124.672h3.738a2.336,2.336,0,1,0,0-4.672h-3.738a2.336,2.336,0,0,0,0,4.672Z" transform="translate(-157.967 -91.967)" fill="#fff"></path><path id="Path_12668" data-name="Path 12668" d="M372.336,124.672h3.738a2.336,2.336,0,0,0,0-4.672h-3.738a2.336,2.336,0,0,0,0,4.672Z" transform="translate(-298.984 -91.967)" fill="#fff"></path><ellipse id="Ellipse_1324" data-name="Ellipse 1324" cx="2.336" cy="2.336" rx="2.336" ry="2.336" transform="translate(48.298 98.932)" fill="#fff"></ellipse></svg>
