<svg class="" xmlns="http://www.w3.org/2000/svg" width="150.233" height="114.951" viewBox="0 0 150.233 114.951" data-label="svg"><path id="Path_12669" data-name="Path 12669" d="M145.68,100.108H98.486v-.151A4.558,4.558,0,0,0,93.934,95.4H82.021V87.672a56.031,56.031,0,0,0,5.614-.93,13.673,13.673,0,0,0,9.574-7.755,13.918,13.918,0,0,0-.43-12.534,12.109,12.109,0,0,0-10.646-6.33H61.9a6.9,6.9,0,0,0-6.067,3.607L49.073,76.163a4.6,4.6,0,0,0-.337,3.587,4.437,4.437,0,0,0,2.3,2.664,55.533,55.533,0,0,0,17.174,5.152V95.4H24.278a6.937,6.937,0,0,0-6.465,4.481l-5.376,14.336H4.553A4.557,4.557,0,0,0,0,118.773v4.7a4.558,4.558,0,0,0,4.553,4.553H25.116L13.67,166.184a6.9,6.9,0,0,0,6.613,8.889H32.778a2.2,2.2,0,0,0,2.108-1.568l8-26.657H56.3a11.622,11.622,0,0,0,11.609-11.609v-7.208H79.821a4.558,4.558,0,0,0,4.553-4.553v-4.856h9.711V128.7a6.916,6.916,0,0,0-4.7,6.543V170.52a4.558,4.558,0,0,0,4.553,4.553h4.7a4.558,4.558,0,0,0,4.553-4.553V135.238a6.916,6.916,0,0,0-4.7-6.543V104.509h33.233v5.007H105.694a2.2,2.2,0,0,0,0,4.4H145.68a4.558,4.558,0,0,0,4.553-4.553v-4.7a4.557,4.557,0,0,0-4.552-4.552ZM92.913,68.554a9.553,9.553,0,0,1,.293,8.6,9.308,9.308,0,0,1-6.513,5.285,52.02,52.02,0,0,1-11.127,1.2A51.565,51.565,0,0,1,61.433,81.69l9.486-17.167H86.134A7.71,7.71,0,0,1,92.913,68.554ZM52.927,78.406a.18.18,0,0,1,.013-.141L59.7,65.831a2.5,2.5,0,0,1,2.2-1.308h3.993L57.183,80.281q-2.139-.816-4.222-1.825c-.007,0-.022-.011-.035-.049Zm19.686,9.56c.98.05,1.964.078,2.953.078.685,0,1.37-.017,2.054-.042v7.4H72.613ZM31.141,170.672H20.284a2.5,2.5,0,0,1-2.4-3.223l11.825-39.418H43.933Zm32.367-35.433a7.216,7.216,0,0,1-7.208,7.208H44.2l4.325-14.416h.939a29.709,29.709,0,0,0,2.512,10.544,2.2,2.2,0,0,0,3.937-1.968,25.252,25.252,0,0,1-2.038-8.576h9.629Zm16.465-11.76a.151.151,0,0,1-.151.151H4.553a.151.151,0,0,1-.151-.151v-4.7a.152.152,0,0,1,.151-.152H21.017a2.2,2.2,0,0,0,0-4.4h-3.88l4.8-12.791A2.515,2.515,0,0,1,24.278,99.8H93.934a.151.151,0,0,1,.151.151v14.264H30.426a2.2,2.2,0,1,0,0,4.4H79.972ZM98.789,170.52a.151.151,0,0,1-.151.151h-4.7a.151.151,0,0,1-.151-.151V135.238a2.5,2.5,0,0,1,5.007,0Zm47.043-61.155a.151.151,0,0,1-.151.151h-9.56v-5.007h9.56a.151.151,0,0,1,.151.151Z" transform="translate(0 -60.122)" fill="#fff" class=""></path></svg>