<svg class="" xmlns="http://www.w3.org/2000/svg" width="98.096" height="98.225" viewBox="0 0 98.096 98.225"><g id="Group_4049" data-name="Group 4049" transform="translate(0)"><g id="Group_4048" data-name="Group 4048"><path id="Path_12670" data-name="Path 12670" d="M94.445,3.753C91.08.388,82.41,0,78.786,0,62.48,0,39.186,5.953,22.621,22.518-2.356,47.365-2.744,87.742,3.726,94.342c3.494,3.365,11.518,3.882,15.918,3.882,16.047,0,39.212-5.953,56.036-22.647C100.4,50.859,101.692,11,94.445,3.753Zm-74.8,89.683C11.75,93.436,8,91.883,7.091,90.977,5.409,89.3,4.373,83.083,4.891,74.93L23.4,93.307C22.1,93.436,20.809,93.436,19.644,93.436ZM72.315,72.083C59.762,84.636,43.068,90.589,29.48,92.66L5.538,68.848C7.479,55.259,13.3,38.436,25.985,25.753,38.28,13.459,54.456,7.506,68.3,5.435L92.763,29.894C90.821,43.095,84.868,59.53,72.315,72.083ZM93.41,23.941,74.386,4.788c1.553-.129,2.977-.129,4.4-.129,7.894,0,11.518,1.553,12.294,2.329C92.892,8.8,94.057,15.271,93.41,23.941Z" transform="translate(-0.198 0)" fill="#fff"></path></g></g><g id="Group_4051" data-name="Group 4051" transform="translate(27.696 27.791)"><g id="Group_4050" data-name="Group 4050"><path id="Path_12671" data-name="Path 12671" d="M127.636,103.274l-6.73-6.729,4.271-4.271a2.379,2.379,0,0,0-3.365-3.365l-4.271,4.4-6.729-6.729a2.379,2.379,0,0,0-3.365,3.365l6.729,6.729-7.118,7.118-6.73-6.729a2.379,2.379,0,1,0-3.365,3.365l6.729,6.729-7.118,7.118-6.729-6.729a2.379,2.379,0,0,0-3.365,3.365l6.729,6.729-4.271,4.271a2.423,2.423,0,0,0,0,3.365,2.143,2.143,0,0,0,1.682.647,2.726,2.726,0,0,0,1.682-.647L96.577,121l6.73,6.729a2.143,2.143,0,0,0,1.682.647,2.726,2.726,0,0,0,1.682-.647,2.423,2.423,0,0,0,0-3.365l-6.729-6.859,7.118-7.118,6.729,6.729a2.143,2.143,0,0,0,1.682.647,2.726,2.726,0,0,0,1.682-.647,2.423,2.423,0,0,0,0-3.365l-6.729-6.729,7.118-7.118,6.729,6.729a2.143,2.143,0,0,0,1.682.647,2.726,2.726,0,0,0,1.682-.647A2.423,2.423,0,0,0,127.636,103.274Z" transform="translate(-85.803 -85.9)" fill="#fff"></path></g></g><g id="Group_4053" data-name="Group 4053" transform="translate(15.753 13.735)"><g id="Group_4052" data-name="Group 4052"><path id="Path_12672" data-name="Path 12672" d="M87.783,44.119a2.325,2.325,0,0,0-2.977-1.553c-1.035.388-26.141,8.282-35.718,31.706a2.245,2.245,0,0,0,1.294,3.106,2.2,2.2,0,0,0,.906.129,2.392,2.392,0,0,0,2.2-1.424C62.288,54.731,85.971,47.1,86.23,47.1A2.325,2.325,0,0,0,87.783,44.119Z" transform="translate(-48.89 -42.454)" fill="#fff"></path></g></g></svg>