<svg class="" xmlns="http://www.w3.org/2000/svg" width="120.577" height="117.902" viewBox="0 0 120.577 117.902"><g id="Group_20" data-name="Group 20" transform="translate(831.369 -2720.248)"><path id="Path_73" data-name="Path 73" d="M-727.8,2875.76v9.716h-45.967a4.857,4.857,0,0,1-4.858-4.858,4.838,4.838,0,0,1,1.423-3.435,4.856,4.856,0,0,1,3.435-1.423Z" transform="translate(-34.978 -106.268)" fill="none" stroke="#fff" stroke-linecap="round" stroke-linejoin="round" stroke-width="3"></path><path id="Path_74" data-name="Path 74" d="M-727.8,2961.14v9.715h-45.967A4.858,4.858,0,0,1-778.63,2966a4.837,4.837,0,0,1,1.423-3.435,4.855,4.855,0,0,1,3.435-1.423Z" transform="translate(-34.978 -165.18)" fill="none" stroke="#fff" stroke-linecap="round" stroke-linejoin="round" stroke-width="3"></path><line id="Line_29" data-name="Line 29" y1="11.371" transform="translate(-807.266 2805.676)" fill="none" stroke="#fff" stroke-linecap="round" stroke-width="3"></line><path id="Path_75" data-name="Path 75" d="M-796.15,2821.931v-76.2a23.979,23.979,0,0,1,23.979-23.979,23.917,23.917,0,0,1,16.957,7.021,23.917,23.917,0,0,1,7.021,16.957v8.565a5.886,5.886,0,0,1-5.887,5.887,5.869,5.869,0,0,1-4.163-1.724,5.876,5.876,0,0,1-1.724-4.163v-8.243a12.2,12.2,0,0,0-12.2-12.2,12.177,12.177,0,0,0-8.631,3.574,12.166,12.166,0,0,0-3.574,8.63v23.443" transform="translate(-22.89 -0.001)" fill="none" stroke="#fff" stroke-linecap="round" stroke-linejoin="round" stroke-width="3"></path><line id="Line_30" data-name="Line 30" y1="16.753" transform="translate(-807.266 2779.208)" fill="none" stroke="#fff" stroke-linecap="round" stroke-width="3"></line><path id="Path_76" data-name="Path 76" d="M-614.683,2819.121v-73.393a23.979,23.979,0,0,1,23.979-23.98h0a23.98,23.98,0,0,1,23.98,23.98v8.564a5.888,5.888,0,0,1-5.888,5.888h0a5.888,5.888,0,0,1-5.888-5.888v-8.243a12.2,12.2,0,0,0-12.2-12.2h0a12.2,12.2,0,0,0-12.2,12.2v75.471" transform="translate(-148.101)" fill="none" stroke="#fff" stroke-linecap="round" stroke-linejoin="round" stroke-width="3"></path><line id="Line_31" data-name="Line 31" x2="37.522" transform="translate(-751.008 2774.351)" fill="none" stroke="#fff" stroke-linecap="round" stroke-width="3"></line><line id="Line_32" data-name="Line 32" x2="10.284" transform="translate(-829.323 2774.351)" fill="none" stroke="#fff" stroke-linecap="round" stroke-width="3"></line><g id="Group_18" data-name="Group 18" transform="translate(-829.323 2829.873)"><path id="Path_77" data-name="Path 77" d="M-679.02,3070.534a13.391,13.391,0,0,0,11.648,6.777,13.392,13.392,0,0,0,11.65-6.777" transform="translate(725.615 -3070.534)" fill="none" stroke="#fff" stroke-linecap="round" stroke-linejoin="round" stroke-width="3"></path><path id="Path_78" data-name="Path 78" d="M-754.176,3070.534a13.383,13.383,0,0,0,11.647,6.777,13.391,13.391,0,0,0,11.648-6.777" transform="translate(777.472 -3070.534)" fill="none" stroke="#fff" stroke-linecap="round" stroke-linejoin="round" stroke-width="3"></path><path id="Path_79" data-name="Path 79" d="M-829.323,3070.534a13.39,13.39,0,0,0,11.646,6.777,13.392,13.392,0,0,0,11.65-6.777" transform="translate(829.323 -3070.534)" fill="none" stroke="#fff" stroke-linecap="round" stroke-linejoin="round" stroke-width="3"></path><path id="Path_80" data-name="Path 80" d="M-603.866,3070.534a13.383,13.383,0,0,0,11.647,6.777,13.391,13.391,0,0,0,11.648-6.777" transform="translate(673.759 -3070.534)" fill="none" stroke="#fff" stroke-linecap="round" stroke-linejoin="round" stroke-width="3"></path><path id="Path_81" data-name="Path 81" d="M-528.71,3070.534a13.391,13.391,0,0,0,11.648,6.777,13.39,13.39,0,0,0,11.646-6.777" transform="translate(621.901 -3070.534)" fill="none" stroke="#fff" stroke-linecap="round" stroke-linejoin="round" stroke-width="3"></path></g><g id="Group_19" data-name="Group 19" transform="translate(-829.323 2815.221)"><path id="Path_82" data-name="Path 82" d="M-679.02,3023.27a13.391,13.391,0,0,0,11.648,6.777,13.392,13.392,0,0,0,11.65-6.777" transform="translate(725.615 -3023.27)" fill="none" stroke="#fff" stroke-linecap="round" stroke-linejoin="round" stroke-width="3"></path><path id="Path_83" data-name="Path 83" d="M-754.176,3023.27a13.383,13.383,0,0,0,11.647,6.777,13.391,13.391,0,0,0,11.648-6.777" transform="translate(777.472 -3023.27)" fill="none" stroke="#fff" stroke-linecap="round" stroke-linejoin="round" stroke-width="3"></path><path id="Path_84" data-name="Path 84" d="M-829.323,3023.27a13.39,13.39,0,0,0,11.646,6.777,13.392,13.392,0,0,0,11.65-6.777" transform="translate(829.323 -3023.27)" fill="none" stroke="#fff" stroke-linecap="round" stroke-linejoin="round" stroke-width="3"></path><path id="Path_85" data-name="Path 85" d="M-603.866,3023.27a13.383,13.383,0,0,0,11.647,6.777,13.391,13.391,0,0,0,11.648-6.777" transform="translate(673.759 -3023.27)" fill="none" stroke="#fff" stroke-linecap="round" stroke-linejoin="round" stroke-width="3"></path><path id="Path_86" data-name="Path 86" d="M-528.71,3023.27a13.391,13.391,0,0,0,11.648,6.777,13.39,13.39,0,0,0,11.646-6.777" transform="translate(621.901 -3023.27)" fill="none" stroke="#fff" stroke-linecap="round" stroke-linejoin="round" stroke-width="3"></path></g></g></svg>