<svg class="" xmlns="http://www.w3.org/2000/svg" width="119.607" height="111.866" viewBox="0 0 119.607 111.866"><path id="Path_12645" data-name="Path 12645" d="M94.635,99.4H24.973A25,25,0,0,0,0,124.371v58.05a5.629,5.629,0,0,0,5.622,5.622h8.106a1.752,1.752,0,1,0,0-3.5H5.623a2.12,2.12,0,0,1-2.118-2.118V141.6H23.221v4.236H9.493a1.752,1.752,0,0,0-1.752,1.752v30.96A1.752,1.752,0,0,0,9.493,180.3H63.674a1.751,1.751,0,0,0,1.752-1.752v-30.96a1.751,1.751,0,0,0-1.752-1.752H49.946V141.6H69.662v40.818a5.6,5.6,0,0,0,.415,2.118H20.738a1.752,1.752,0,1,0,0,3.5h93.247a5.629,5.629,0,0,0,5.622-5.622v-58.05A25,25,0,0,0,94.635,99.4ZM116.1,124.371V138.1H73.166V124.371a21.469,21.469,0,1,1,42.937,0ZM74.148,102.9a24.986,24.986,0,0,0-12.226,21.469v5.988H11.245v-5.988A21.493,21.493,0,0,1,32.713,102.9ZM38.7,151.726a5.73,5.73,0,0,1-5.723,5.723h-.53a5.73,5.73,0,0,1-5.723-5.723V141.6H38.7Zm23.22-2.383V176.8H11.245V149.344H23.221v2.383a9.238,9.238,0,0,0,9.227,9.227h8a9.5,9.5,0,0,0,9.493-9.492v-2.118Zm-15.48,2.118a6,6,0,0,1-5.988,5.988h-.245a9.183,9.183,0,0,0,2-5.723V141.6h4.236ZM48.194,138.1H3.5V124.371a21.506,21.506,0,0,1,14.858-20.426A24.959,24.959,0,0,0,7.741,124.371v7.74a1.752,1.752,0,0,0,1.752,1.752H63.674a1.752,1.752,0,0,0,1.752-1.752v-7.74a21.506,21.506,0,0,1,14.858-20.426,24.959,24.959,0,0,0-10.622,20.426V138.1Zm65.791,46.44h-38.7a2.121,2.121,0,0,1-2.119-2.118V141.6H116.1v40.818a2.12,2.12,0,0,1-2.118,2.118Zm0,0" transform="translate(-0.001 -76.178)" fill="#fff"></path><path id="Path_12646" data-name="Path 12646" d="M331.332,149.764v7.74a1.752,1.752,0,0,0,1.752,1.752h30.961A1.753,1.753,0,0,0,365.8,157.5v-7.74a17.233,17.233,0,1,0-34.465,0Zm30.961,0v5.988H334.836v-5.988a13.728,13.728,0,1,1,27.457,0Zm0,0" transform="translate(-253.931 -101.571)" fill="#fff"></path><path id="Path_12647" data-name="Path 12647" d="M364.045,298.2H333.084a1.752,1.752,0,0,0-1.752,1.752v30.96a1.752,1.752,0,0,0,1.752,1.752h30.961a1.752,1.752,0,0,0,1.752-1.752v-30.96A1.752,1.752,0,0,0,364.045,298.2Zm-1.752,30.96H334.836V301.7h27.457Zm0,0" transform="translate(-253.931 -228.538)" fill="#fff"></path><path id="Path_12648" data-name="Path 12648" d="M34.885,40.507H37v2.118a1.752,1.752,0,0,0,3.5,0V40.507h2.118a1.752,1.752,0,0,0,0-3.5H40.507V34.885a1.752,1.752,0,1,0-3.5,0V37H34.885a1.752,1.752,0,1,0,0,3.5Zm0,0" transform="translate(-25.393 -25.393)" fill="#fff"></path><path id="Path_12649" data-name="Path 12649" d="M101.15,7.374h2.118V9.492a1.752,1.752,0,0,0,3.5,0V7.374h2.118a1.752,1.752,0,0,0,0-3.5h-2.118V1.752a1.752,1.752,0,0,0-3.5,0V3.87H101.15a1.752,1.752,0,0,0,0,3.5Zm0,0" transform="translate(-76.178 0)" fill="#fff"></path><path id="Path_12650" data-name="Path 12650" d="M399.354,40.507h2.117v2.118a1.752,1.752,0,0,0,3.5,0V40.507h2.119a1.752,1.752,0,0,0,0-3.5h-2.119V34.885a1.752,1.752,0,1,0-3.5,0V37h-2.117a1.752,1.752,0,0,0,0,3.5Zm0,0" transform="translate(-304.72 -25.393)" fill="#fff"></path><path id="Path_12651" data-name="Path 12651" d="M134.287,305.574a1.752,1.752,0,0,0,1.752-1.752v-3.87a1.752,1.752,0,0,0-3.5,0v3.87A1.752,1.752,0,0,0,134.287,305.574Zm0,0" transform="translate(-101.574 -228.538)" fill="#fff"></path></svg>